<?xml version="1.0" encoding="UTF-8" standalone="no"?>
<svg width="213px" height="53px" viewBox="0 0 213 53" version="1.1" xmlns="http://www.w3.org/2000/svg" xmlns:xlink="http://www.w3.org/1999/xlink">
    <!-- Generator: Sketch 3.6 (26304) - http://www.bohemiancoding.com/sketch -->
    <title>Group</title>
    <desc>Created with Sketch.</desc>
    <defs></defs>
    <g id="Page-1" stroke="none" stroke-width="1" fill="none" fill-rule="evenodd">
        <g id="Group" fill="#FFFFFF">
            <path d="M102.124,9.94 C100.312,9.477 98.643,8.534 97.839,7.002 C97.796,6.92 97.792,6.833 97.826,6.749 C97.859,6.664 97.924,6.605 98.009,6.575 C99.649,6.021 101.508,6.49 103.138,7.408 C103.258,7.475 103.404,7.455 103.501,7.355 C103.598,7.256 103.615,7.11 103.545,6.991 C102.591,5.382 102.078,3.535 102.593,1.883 C102.62,1.796 102.678,1.732 102.761,1.696 C102.846,1.661 102.932,1.662 103.015,1.704 C104.566,2.471 105.548,4.117 106.053,5.918 C106.09,6.051 106.208,6.14 106.346,6.138 C106.485,6.136 106.601,6.045 106.635,5.911 C107.098,4.099 108.041,2.43 109.573,1.626 C109.653,1.583 109.74,1.579 109.824,1.613 C109.91,1.647 109.969,1.71 109.998,1.797 C110.553,3.437 110.083,5.295 109.167,6.925 C109.1,7.046 109.12,7.191 109.219,7.289 C109.318,7.385 109.464,7.402 109.583,7.332 C111.191,6.378 113.038,5.864 114.691,6.38 C114.777,6.407 114.842,6.466 114.878,6.549 C114.914,6.633 114.912,6.72 114.871,6.801 C114.103,8.353 112.457,9.335 110.656,9.84 C110.522,9.877 110.435,9.996 110.436,10.134 C110.438,10.271 110.529,10.387 110.663,10.421 C112.475,10.885 114.144,11.828 114.947,13.36 C114.989,13.441 114.994,13.527 114.96,13.612 C114.927,13.697 114.864,13.757 114.777,13.786 C113.138,14.34 111.279,13.87 109.648,12.954 C109.528,12.886 109.382,12.907 109.286,13.005 C109.188,13.105 109.171,13.252 109.242,13.371 C110.196,14.979 110.709,16.826 110.194,18.477 C110.167,18.565 110.109,18.629 110.025,18.665 C109.941,18.701 109.854,18.699 109.773,18.658 C108.221,17.891 107.239,16.244 106.734,14.443 C106.697,14.31 106.579,14.221 106.441,14.224 C106.302,14.225 106.187,14.316 106.151,14.451 C105.689,16.262 104.746,17.931 103.213,18.735 C103.133,18.778 103.046,18.783 102.962,18.748 C102.877,18.713 102.817,18.651 102.789,18.565 C102.234,16.925 102.704,15.066 103.621,13.436 C103.688,13.315 103.667,13.169 103.567,13.072 C103.469,12.976 103.323,12.958 103.204,13.029 C101.596,13.983 99.749,14.496 98.096,13.981 C98.009,13.954 97.944,13.896 97.909,13.812 C97.873,13.728 97.875,13.642 97.916,13.56 C98.684,12.008 100.331,11.026 102.131,10.521 C102.264,10.484 102.352,10.366 102.351,10.227 C102.35,10.089 102.258,9.973 102.124,9.94 L102.124,9.94 Z M106.199,9.726 C104.591,8.543 102.91,5.983 103.725,3.947 C105.762,4.763 106.452,7.744 106.199,9.726 L106.199,9.726 Z M106.577,9.722 C106.277,7.749 106.898,4.749 108.916,3.886 C109.779,5.904 108.158,8.501 106.577,9.722 L106.577,9.722 Z M106.848,9.986 C108.031,8.379 110.591,6.696 112.628,7.512 C111.811,9.55 108.829,10.24 106.848,9.986 L106.848,9.986 Z M106.853,10.364 C108.826,10.065 111.826,10.685 112.688,12.702 C110.671,13.565 108.074,11.945 106.853,10.364 L106.853,10.364 Z M106.588,10.635 C108.195,11.817 109.877,14.379 109.061,16.415 C107.024,15.599 106.334,12.616 106.588,10.635 L106.588,10.635 Z M106.21,10.64 C106.509,12.612 105.889,15.612 103.873,16.476 C103.008,14.457 104.629,11.861 106.21,10.64 L106.21,10.64 Z M105.939,10.375 C104.756,11.983 102.195,13.664 100.16,12.849 C100.975,10.811 103.958,10.122 105.939,10.375 L105.939,10.375 Z M105.935,9.997 C103.961,10.297 100.962,9.676 100.099,7.659 C102.116,6.795 104.712,8.416 105.935,9.997 L105.935,9.997 Z" id="Fill-3"></path>
            <path d="M43.159,37.112 C39.502,37.935 36.506,36.065 36.505,32.488 C36.504,29.281 39.036,26.327 43.541,26.328 C47.411,26.329 51.311,29.923 51.421,34.126 C51.527,38.117 48.043,44.658 40.524,44.645 C32.751,44.631 28.347,39.31 28.167,32.654 C27.987,26.095 33.402,17.017 47.506,19.917 C57.588,21.99 67.987,35.649 80.891,35.748 C89.54,35.817 98.307,32.034 103.619,26.045 L106.601,22.285 C101.841,35.026 88.584,38.067 81.073,37.928 C61.354,37.57 56.292,25.065 47.153,22.506 C36.562,19.543 30.437,26.252 30.438,32.832 C30.439,38.469 34.776,43.206 40.551,43.186 C47.21,43.163 49.681,38.26 49.559,34.353 C49.467,31.356 47.167,28.3 43.538,28.144 C40.122,27.997 37.938,29.958 37.723,32.436 C37.455,35.508 39.585,37.523 43.159,37.112" id="Fill-4"></path>
            <path d="M89.004,33.767 C72.614,38.808 54.722,21.405 49.878,12.602 C47.089,7.533 51.895,6.207 54.923,12.22 C58.639,19.598 72.761,36.422 89.004,33.767" id="Fill-5"></path>
            <path d="M96.16,31.012 C74.459,39.397 60.128,17.449 58.772,7.581 C58.019,2.098 63.543,-1.096 63.897,6.958 C64.363,17.504 75.811,36.9 96.16,31.012" id="Fill-6"></path>
            <path d="M99.798,28.157 C79.728,40.02 65.597,16.906 70.036,4.266 C71.887,-1.002 77.204,-1.475 74.69,5.854 C71.117,16.271 78.075,37.766 99.798,28.157" id="Fill-7"></path>
            <path d="M53.49,20.722 C49.339,16.669 38.061,10.776 31.085,12.635 C30.385,12.822 29.405,13.225 29.387,13.967 C29.369,14.809 30.085,15.621 33.824,15.981 C41.472,16.716 47.161,17.401 53.49,20.722" id="Fill-8"></path>
            <path d="M72.713,37.059 C67.572,36.921 58.139,39.458 54.72,44.868 C54.377,45.41 53.982,46.263 54.417,46.757 C54.913,47.315 55.867,47.414 58.516,45.395 C63.934,41.267 66.39,38.396 72.713,37.059" id="Fill-9"></path>
            <path d="M64.059,37.449 C57.639,37.932 52.691,38.396 48.808,42.47 C48.167,43.141 47.933,44.135 48.368,44.641 C48.802,45.148 49.787,45.292 51.586,43.552 C54.768,40.476 57.667,39.005 64.059,37.449" id="Fill-10"></path>
            <path d="M14.961,36.421 C13.144,35.98 11.463,35.058 10.641,33.536 C10.598,33.455 10.592,33.369 10.624,33.283 C10.658,33.198 10.72,33.138 10.805,33.108 C12.439,32.534 14.303,32.981 15.945,33.877 C16.066,33.942 16.211,33.92 16.307,33.82 C16.403,33.721 16.419,33.574 16.347,33.455 C15.374,31.859 14.836,30.018 15.331,28.36 C15.357,28.273 15.415,28.208 15.498,28.17 C15.583,28.134 15.669,28.135 15.751,28.175 C17.312,28.923 18.314,30.558 18.84,32.352 C18.88,32.485 18.999,32.572 19.137,32.568 C19.276,32.566 19.39,32.472 19.422,32.338 C19.863,30.521 20.786,28.839 22.308,28.017 C22.388,27.974 22.475,27.969 22.56,28.002 C22.645,28.035 22.705,28.097 22.735,28.183 C23.31,29.817 22.862,31.68 21.966,33.322 C21.901,33.443 21.923,33.588 22.023,33.683 C22.124,33.778 22.27,33.795 22.388,33.723 C23.985,32.75 25.826,32.213 27.484,32.708 C27.571,32.735 27.636,32.792 27.673,32.875 C27.71,32.958 27.709,33.045 27.669,33.127 C26.92,34.689 25.286,35.691 23.492,36.218 C23.359,36.256 23.272,36.375 23.275,36.514 C23.278,36.652 23.371,36.767 23.506,36.799 C25.322,37.24 27.003,38.163 27.826,39.685 C27.869,39.765 27.875,39.852 27.842,39.937 C27.809,40.022 27.747,40.082 27.661,40.112 C26.027,40.687 24.164,40.239 22.523,39.344 C22.401,39.277 22.255,39.3 22.16,39.4 C22.064,39.5 22.049,39.647 22.12,39.765 C23.094,41.361 23.63,43.202 23.135,44.86 C23.109,44.947 23.052,45.013 22.969,45.049 C22.885,45.086 22.799,45.085 22.716,45.046 C21.156,44.297 20.153,42.663 19.626,40.869 C19.586,40.735 19.468,40.648 19.331,40.652 C19.192,40.655 19.077,40.748 19.044,40.882 C18.604,42.7 17.681,44.38 16.159,45.203 C16.078,45.246 15.992,45.252 15.907,45.218 C15.822,45.186 15.762,45.124 15.731,45.038 C15.157,43.405 15.604,41.541 16.5,39.899 C16.566,39.777 16.544,39.632 16.443,39.537 C16.344,39.441 16.198,39.426 16.079,39.498 C14.483,40.471 12.642,41.006 10.983,40.512 C10.896,40.485 10.831,40.429 10.794,40.345 C10.756,40.262 10.758,40.175 10.797,40.093 C11.547,38.532 13.181,37.53 14.975,37.002 C15.108,36.964 15.195,36.845 15.192,36.707 C15.188,36.568 15.096,36.454 14.961,36.421 L14.961,36.421 Z M19.034,36.158 C17.412,34.995 15.698,32.456 16.489,30.409 C18.537,31.2 19.263,34.173 19.034,36.158 L19.034,36.158 Z M19.411,36.148 C19.087,34.18 19.671,31.172 21.678,30.285 C22.565,32.293 20.977,34.908 19.411,36.148 L19.411,36.148 Z M19.685,36.41 C20.848,34.789 23.388,33.075 25.435,33.866 C24.643,35.913 21.67,36.64 19.685,36.41 L19.685,36.41 Z M19.695,36.788 C21.663,36.464 24.671,37.048 25.558,39.054 C23.551,39.943 20.936,38.354 19.695,36.788 L19.695,36.788 Z M19.433,37.062 C21.055,38.225 22.768,40.765 21.977,42.811 C19.93,42.02 19.205,39.046 19.433,37.062 L19.433,37.062 Z M19.055,37.071 C19.379,39.04 18.795,42.048 16.789,42.936 C15.901,40.929 17.49,38.313 19.055,37.071 L19.055,37.071 Z M18.781,36.81 C17.619,38.432 15.079,40.146 13.033,39.354 C13.824,37.307 16.797,36.581 18.781,36.81 L18.781,36.81 Z M18.773,36.433 C16.803,36.756 13.796,36.172 12.909,34.166 C14.915,33.278 17.532,34.866 18.773,36.433 L18.773,36.433 Z" id="Fill-11"></path>
            <path d="M106.603,22.286 C101.785,28.456 85.972,34.747 80.177,24.335 C77.614,19.728 79.607,13.371 84.499,10.657 C89.339,7.969 94.715,9.554 97.252,14.213 C98.918,17.274 97.738,21.427 95.144,22.552 C92.24,23.812 88.449,21.864 89.618,18.811 C89.814,20.742 91.871,22.202 93.993,20.906 C95.834,19.785 95.878,17.116 95.055,15.551 C93.858,13.281 90.467,10.894 86.053,13.375 C82.709,15.254 81.553,19.689 83.218,22.693 C88.054,31.417 101.313,26.64 106.603,22.286" id="Fill-12"></path>
            <path d="M55.729,26.1 C56.142,26.443 56.756,26.386 57.098,25.973 C57.44,25.559 57.384,24.947 56.971,24.604 C52.98,21.31 47.575,19.304 41.674,18.781 C35.143,18.204 27.921,18.635 21.501,20.879 C14.374,23.361 3.906,29.767 1.376,37.971 C0.386,41.181 0.317,45.021 2.584,48.479 C5.086,52.335 10.287,54.66 14.023,51.024 C14.978,50.094 15.812,48.703 15.816,47.463 C15.824,44.012 13.681,41.918 10.381,42.032 C7.727,42.122 5.611,44.618 5.884,46.991 C6.033,48.586 7.211,49.71 8.404,49.971 C9.634,50.24 11.571,49.085 11.143,47.137 C10.549,47.871 8.585,47.777 8.532,46.47 C8.38,45.157 9.288,44.108 10.604,43.958 C12.403,43.75 13.915,45.221 13.907,47.344 C13.903,48.159 13.331,48.985 12.669,49.629 C9.797,52.423 6.016,50.196 4.215,47.419 C2.292,44.455 2.426,41.096 3.309,38.326 C5.71,30.781 15.883,24.899 22.14,22.711 C28.315,20.553 35.249,20.159 41.503,20.712 C47.027,21.2 52.058,23.068 55.729,26.1" id="Fill-13"></path>
            <path d="M105.907,25.361 C103.399,31.69 101.373,36.538 96.038,39.176 C95.158,39.61 94.081,39.534 93.707,38.937 C93.333,38.339 93.497,37.3 95.82,36.031 C99.927,33.788 102.324,31.323 105.907,25.361" id="Fill-14"></path>
            <path d="M106.601,22.329 C105.71,25.032 103.67,41.878 106.601,41.878 C109.533,41.878 107.494,25.032 106.601,22.329" id="Fill-15"></path>
            <path d="M104.841,29.534 C104.67,32.948 102.507,39.069 98.749,41.058 C98.372,41.258 97.786,41.476 97.481,41.163 C97.136,40.806 97.12,40.168 98.592,38.516 C101.604,35.136 103.632,33.655 104.841,29.534" id="Fill-16"></path>
            <path d="M170.045,37.112 C173.702,37.935 176.697,36.065 176.699,32.488 C176.699,29.281 174.167,26.327 169.662,26.328 C165.792,26.329 161.892,29.923 161.782,34.126 C161.677,38.117 165.16,44.658 172.68,44.645 C180.453,44.631 184.856,39.31 185.037,32.654 C185.217,26.095 179.801,17.017 165.696,19.917 C155.615,21.99 145.216,35.649 132.313,35.748 C123.664,35.817 114.897,32.034 109.585,26.045 L106.603,22.285 C111.362,35.026 124.619,38.067 132.13,37.928 C151.849,37.57 156.911,25.065 166.05,22.506 C176.642,19.543 182.766,26.252 182.766,32.832 C182.765,38.469 178.428,43.206 172.653,43.186 C165.993,43.163 163.523,38.26 163.644,34.353 C163.736,31.356 166.037,28.3 169.667,28.144 C173.083,27.997 175.266,29.958 175.481,32.436 C175.749,35.508 173.619,37.523 170.045,37.112" id="Fill-17"></path>
            <path d="M124.2,33.767 C140.589,38.808 158.481,21.405 163.324,12.602 C166.115,7.533 161.308,6.207 158.28,12.22 C154.564,19.598 140.443,36.422 124.2,33.767" id="Fill-18"></path>
            <path d="M117.044,31.012 C138.745,39.397 153.076,17.449 154.431,7.581 C155.184,2.098 149.66,-1.096 149.305,6.958 C148.84,17.504 137.393,36.9 117.044,31.012" id="Fill-19"></path>
            <path d="M113.405,28.157 C133.476,40.02 147.606,16.906 143.167,4.266 C141.317,-1.002 135.999,-1.475 138.515,5.854 C142.088,16.271 135.128,37.766 113.405,28.157" id="Fill-20"></path>
            <path d="M159.714,20.722 C163.864,16.669 175.142,10.776 182.119,12.635 C182.818,12.822 183.799,13.225 183.815,13.967 C183.835,14.809 183.118,15.621 179.38,15.981 C171.732,16.716 166.042,17.401 159.714,20.722" id="Fill-21"></path>
            <path d="M140.491,37.059 C145.631,36.921 155.064,39.458 158.483,44.868 C158.827,45.41 159.221,46.263 158.785,46.757 C158.291,47.315 157.336,47.414 154.687,45.395 C149.269,41.267 146.812,38.396 140.491,37.059" id="Fill-22"></path>
            <path d="M149.145,37.449 C155.565,37.932 160.513,38.396 164.396,42.47 C165.035,43.141 165.271,44.135 164.836,44.641 C164.401,45.148 163.417,45.292 161.618,43.552 C158.436,40.476 155.536,39.005 149.145,37.449" id="Fill-23"></path>
            <path d="M198.242,36.421 C200.059,35.98 201.74,35.058 202.563,33.536 C202.606,33.455 202.611,33.369 202.578,33.283 C202.546,33.198 202.483,33.138 202.397,33.108 C200.764,32.534 198.9,32.981 197.259,33.877 C197.138,33.942 196.992,33.92 196.896,33.82 C196.802,33.721 196.785,33.574 196.856,33.455 C197.83,31.859 198.366,30.018 197.872,28.36 C197.845,28.273 197.788,28.208 197.705,28.17 C197.622,28.134 197.535,28.135 197.452,28.175 C195.892,28.923 194.889,30.558 194.363,32.352 C194.324,32.485 194.205,32.572 194.066,32.568 C193.929,32.566 193.814,32.472 193.781,32.338 C193.341,30.521 192.417,28.839 190.895,28.017 C190.814,27.974 190.729,27.969 190.644,28.002 C190.558,28.035 190.499,28.097 190.468,28.183 C189.894,29.817 190.341,31.68 191.236,33.322 C191.303,33.443 191.281,33.588 191.18,33.683 C191.08,33.778 190.933,33.795 190.815,33.723 C189.219,32.75 187.379,32.213 185.72,32.708 C185.633,32.735 185.568,32.792 185.531,32.875 C185.493,32.958 185.495,33.045 185.535,33.127 C186.283,34.689 187.917,35.691 189.712,36.218 C189.844,36.256 189.931,36.375 189.928,36.514 C189.925,36.652 189.833,36.767 189.698,36.799 C187.88,37.24 186.2,38.163 185.377,39.685 C185.334,39.765 185.328,39.852 185.361,39.937 C185.395,40.022 185.456,40.082 185.542,40.112 C187.176,40.687 189.041,40.239 190.681,39.344 C190.803,39.277 190.949,39.3 191.043,39.4 C191.139,39.5 191.155,39.647 191.083,39.765 C190.11,41.361 189.573,43.202 190.068,44.86 C190.094,44.947 190.151,45.013 190.235,45.049 C190.319,45.086 190.405,45.085 190.487,45.046 C192.048,44.297 193.05,42.663 193.577,40.869 C193.616,40.735 193.735,40.648 193.874,40.652 C194.011,40.655 194.126,40.748 194.159,40.882 C194.601,42.7 195.523,44.38 197.044,45.203 C197.125,45.246 197.212,45.252 197.296,45.218 C197.382,45.186 197.443,45.124 197.472,45.038 C198.047,43.405 197.6,41.541 196.704,39.899 C196.637,39.777 196.66,39.632 196.76,39.537 C196.859,39.441 197.006,39.426 197.125,39.498 C198.721,40.471 200.562,41.006 202.22,40.512 C202.308,40.485 202.372,40.429 202.41,40.345 C202.447,40.262 202.445,40.175 202.406,40.093 C201.657,38.532 200.022,37.53 198.228,37.002 C198.095,36.964 198.008,36.845 198.012,36.707 C198.016,36.568 198.107,36.454 198.242,36.421 L198.242,36.421 Z M194.17,36.158 C195.792,34.995 197.504,32.456 196.713,30.409 C194.667,31.2 193.94,34.173 194.17,36.158 L194.17,36.158 Z M193.792,36.148 C194.116,34.18 193.532,31.172 191.526,30.285 C190.637,32.293 192.226,34.908 193.792,36.148 L193.792,36.148 Z M193.518,36.41 C192.355,34.789 189.816,33.075 187.77,33.866 C188.561,35.913 191.534,36.64 193.518,36.41 L193.518,36.41 Z M193.509,36.788 C191.541,36.464 188.533,37.048 187.645,39.054 C189.651,39.943 192.268,38.354 193.509,36.788 L193.509,36.788 Z M193.77,37.062 C192.148,38.225 190.436,40.765 191.226,42.811 C193.273,42.02 193.999,39.046 193.77,37.062 L193.77,37.062 Z M194.148,37.071 C193.824,39.04 194.408,42.048 196.415,42.936 C197.302,40.929 195.714,38.313 194.148,37.071 L194.148,37.071 Z M194.421,36.81 C195.586,38.432 198.125,40.146 200.171,39.354 C199.38,37.307 196.406,36.581 194.421,36.81 L194.421,36.81 Z M194.431,36.433 C196.4,36.756 199.407,36.172 200.294,34.166 C198.288,33.278 195.672,34.866 194.431,36.433 L194.431,36.433 Z" id="Fill-24"></path>
            <path d="M106.601,22.286 C111.419,28.456 127.232,34.747 133.027,24.335 C135.589,19.728 133.597,13.371 128.706,10.657 C123.865,7.969 118.489,9.554 115.951,14.213 C114.285,17.274 115.466,21.427 118.059,22.552 C120.963,23.812 124.755,21.864 123.586,18.811 C123.39,20.742 121.333,22.202 119.21,20.906 C117.369,19.785 117.325,17.116 118.149,15.551 C119.345,13.281 122.736,10.894 127.15,13.375 C130.494,15.254 131.651,19.689 129.985,22.693 C125.15,31.417 111.889,26.64 106.601,22.286" id="Fill-25"></path>
            <path d="M157.474,26.1 C157.061,26.443 156.448,26.386 156.105,25.973 C155.763,25.559 155.82,24.947 156.232,24.604 C160.224,21.31 165.628,19.304 171.531,18.781 C178.06,18.204 185.283,18.635 191.702,20.879 C198.829,23.361 209.297,29.767 211.827,37.971 C212.816,41.181 212.886,45.021 210.62,48.479 C208.118,52.335 202.916,54.66 199.181,51.024 C198.225,50.094 197.391,48.703 197.387,47.463 C197.378,44.012 199.522,41.918 202.823,42.032 C205.476,42.122 207.593,44.618 207.319,46.991 C207.17,48.586 205.993,49.71 204.799,49.971 C203.569,50.24 201.633,49.085 202.061,47.137 C202.655,47.871 204.617,47.777 204.672,46.47 C204.822,45.157 203.915,44.108 202.599,43.958 C200.801,43.75 199.288,45.221 199.297,47.344 C199.3,48.159 199.872,48.985 200.535,49.629 C203.407,52.423 207.188,50.196 208.989,47.419 C210.911,44.455 210.778,41.096 209.895,38.326 C207.494,30.781 197.32,24.899 191.063,22.711 C184.89,20.553 177.954,20.159 171.701,20.712 C166.176,21.2 161.146,23.068 157.474,26.1" id="Fill-26"></path>
            <path d="M107.296,25.361 C109.805,31.69 111.832,36.538 117.167,39.176 C118.045,39.61 119.123,39.534 119.496,38.937 C119.869,38.339 119.706,37.3 117.383,36.031 C113.276,33.788 110.879,31.323 107.296,25.361" id="Fill-27"></path>
            <path d="M108.362,29.534 C108.533,32.948 110.695,39.069 114.456,41.058 C114.833,41.258 115.417,41.476 115.722,41.163 C116.067,40.806 116.083,40.168 114.611,38.516 C111.599,35.136 109.571,33.655 108.362,29.534" id="Fill-28"></path>
        </g>
    </g>
</svg>