<?xml version="1.0" encoding="UTF-8" standalone="no"?>
<svg width="48px" height="48px" viewBox="0 0 48 48" version="1.1" xmlns="http://www.w3.org/2000/svg" xmlns:xlink="http://www.w3.org/1999/xlink">
    <!-- Generator: Sketch 3.6 (26304) - http://www.bohemiancoding.com/sketch -->
    <title>1459699343_169</title>
    <desc>Created with Sketch.</desc>
    <defs></defs>
    <g id="Page-1" stroke="none" stroke-width="1" fill="none" fill-rule="evenodd">
        <g id="1459699343_169" fill="#FFFFFF">
            <g id="Group">
                <path d="M22.9,27 C21.9,23.8 21.4,20.2 19.9,17.4 C17.6,13.3 18.2,9.8 20.2,6.2 C21.3,4.2 22.6,2.4 23.8,0.5 C24.9,2.3 26.1,3.8 27.1,5.7 C29.2,9.5 30.2,13.2 27.6,17.6 C26.1,20.3 25.7,24.1 24.9,27.3 L24.6,29.2 C24.1,29.2 23.6,29.3 23.1,29.3 C23,28.5 23,27.8 22.9,27 L22.9,27 Z" id="Shape"></path>
                <path d="M21.3,33 C18.9,32.8 16.4,31.8 14.2,32.4 C11,33.4 8.6,32.5 6.2,30.3 C4.1,28.3 2.2,26.1 0.4,23.6 C7.9,21.2 14.8,20.4 20.2,28.4 C20.4,28.7 21.9,31.6 22.3,33 C22,33.1 21.7,33.1 21.3,33 L21.3,33 Z" id="Shape"></path>
                <path d="M26.6,29.1 C32,21 39,20.8 47.5,23.3 C44.5,26.4 42.1,29.5 39.3,31.6 C37.9,32.7 35.6,32.6 33.7,32.2 C31,31.7 28.5,31 26.1,33.1 C25.9,33.1 25.6,33.2 25.4,33.2 C25.8,31.9 26.2,30.5 26.6,29.1 L26.6,29.1 Z" id="Shape"></path>
                <path d="M25.4,33.8 C25.6,33.8 25.9,33.7 26.1,33.7 C35.4,32.6 41.5,37.5 42.7,47.2 C35.4,48.1 28.1,44.2 24.9,34.3 C25.1,34.1 25.2,33.9 25.4,33.8 L25.4,33.8 Z" id="Shape"></path>
                <path d="M21.3,33.6 C21.6,33.6 22,33.7 22.3,33.7 C22.4,33.9 22.4,34.1 22.5,34.4 C19.2,43.7 13,47.6 4.9,47.5 C5,39.7 11.9,32.6 18.7,33.3 C19.6,33.4 20.4,33.5 21.3,33.6 L21.3,33.6 Z" id="Shape"></path>
                <path d="M38.6,19.5 C38.8,19.3 39,19.1 39.1,18.8 C40.4,15.6 41.3,12.1 42.5,8.1 C35.1,9.9 30.2,14.3 27.3,21.7 C26.6,23.5 26,25.3 25.4,27.1 C28.8,22.1 33.2,19.6 38.6,19.5 L38.6,19.5 Z" id="Shape"></path>
                <path d="M9.1,19.5 C14.2,19.5 18.3,21.8 21.6,26.5 C21.7,26.6 21.8,26.6 21.9,26.7 L22.2,26.9 C21.9,26.3 21.6,25.7 21.4,25 C19.8,20.2 17.8,15.9 14.3,12.8 C11.7,10.5 8.9,8.8 5.2,8.4 C5.9,11.2 6.4,13.3 7,15.5 C7.5,17.1 8.1,18.5 9.1,19.5 L9.1,19.5 Z" id="Shape"></path>
            </g>
        </g>
    </g>
</svg>