<?xml version="1.0" encoding="UTF-8" standalone="no"?>
<svg width="69px" height="76px" viewBox="0 0 69 76" version="1.1" xmlns="http://www.w3.org/2000/svg" xmlns:xlink="http://www.w3.org/1999/xlink">
    <!-- Generator: Sketch 3.6 (26304) - http://www.bohemiancoding.com/sketch -->
    <title>*</title>
    <desc>Created with Sketch.</desc>
    <defs></defs>
    <g id="Page-1" stroke="none" stroke-width="1" fill="none" fill-rule="evenodd">
        <path d="M68.1691666,56.3136303 C69.8189592,53.4417691 68.7148207,49.9981254 65.6918374,48.6169347 L42.3739279,37.9630623 L65.7087836,27.1002846 C68.7174082,25.699718 69.8006641,22.2545956 68.1203221,19.3917909 L67.4930746,18.3231468 C65.8163059,15.4664299 62.2559357,14.6892228 59.5445295,16.5845747 L38.9001836,31.0155738 L40.9030203,5.9801146 C41.1672384,2.6773885 38.6923526,0 35.3834607,0 L34.4769196,0 C31.1643329,0 28.692648,2.67121443 28.95736,5.9801146 L30.9601967,31.0155738 L10.3158508,16.5845747 C7.60275922,14.6880446 4.04764768,15.4603421 2.36730575,18.3231468 L1.74005818,19.3917909 C0.0632895475,22.2485078 1.13316994,25.6951549 4.15159674,27.1002846 L27.4864525,37.9630623 L4.16854294,48.6169347 C1.15055921,49.9958411 0.0436148505,53.4455877 1.69121375,56.3136303 L2.41615018,57.5755566 C4.06594278,60.4474178 7.59337318,61.2233788 10.3007393,59.304566 L30.9601967,44.6624262 L28.95736,69.6978854 C28.6931419,73.0006115 31.1680277,75.678 34.4769196,75.678 L35.3834607,75.678 C38.6960474,75.678 41.1677324,73.0067856 40.9030203,69.6978854 L38.9001836,44.6624262 L59.5596411,59.304566 C62.2643868,61.2215217 65.7966312,60.4435992 67.4442301,57.5755566 L68.1691666,56.3136303 Z" id="*" fill="#FFFFFF"></path>
    </g>
</svg>