<?xml version="1.0" encoding="UTF-8" standalone="no"?>
<svg width="240px" height="248px" viewBox="0 0 240 248" version="1.1" xmlns="http://www.w3.org/2000/svg" xmlns:xlink="http://www.w3.org/1999/xlink">
    <!-- Generator: Sketch 3.6 (26304) - http://www.bohemiancoding.com/sketch -->
    <title>soldout copy</title>
    <desc>Created with Sketch.</desc>
    <defs></defs>
    <g id="Page-1" stroke="none" stroke-width="1" fill="none" fill-rule="evenodd">
        <g id="soldout-copy">
            <g id="Page-1">
                <g id="1459699828_Ecommerce_Icons_Rose_Color-33">
                    <g id="_x33_4">
                        <path d="M203.597999,207.471089 C207.299999,193.552089 214.614999,183.257089 226.489999,175.138089 C240.673999,165.440089 242.778999,159.511089 236.478999,143.548089 C231.012999,129.697089 230.996999,116.819089 235.733999,102.893089 C240.838999,87.8850885 238.884999,81.6990885 225.870999,73.0470885 C212.882999,64.4120885 204.889999,53.0900885 200.170999,38.4340885 C195.105999,22.7040885 190.980999,19.6870885 174.809999,20.1660885 C159.369999,20.6230885 146.072999,16.7420885 133.638999,7.32408854 C120.386999,-2.71391146 115.133999,-2.37091146 101.417999,7.96608854 C90.068999,16.5180885 78.129999,20.6980885 63.660999,19.7990885 C47.104999,18.7710885 41.399999,23.0250885 36.858999,39.3780885 C33.009999,53.2400885 25.600999,63.4680885 13.777999,71.5790885 C-1.16100105,81.8260885 -2.92700105,87.0000885 3.59099895,104.134089 C8.72899895,117.639089 8.62499895,130.178089 3.91299895,143.684089 C-1.57600105,159.416089 0.295998948,165.493089 13.863999,174.518089 C26.853999,183.159089 35.180999,194.277089 39.312999,209.223089 C40.805999,214.625089 44.380999,219.451089 47.198999,224.915089 C53.185999,225.982089 58.544999,228.059089 63.707999,227.649089 C80.528999,226.316089 94.979999,230.918089 107.861999,241.791089 C117.734999,250.124089 128.085999,248.739089 137.501999,240.821089 C149.021999,231.134089 161.639999,226.630089 177.028999,227.434089 C193.717999,228.308089 199.229999,223.897089 203.597999,207.471089 L203.597999,207.471089 L203.597999,207.471089 Z" id="Shape" fill="#18B380"></path>
                        <path d="M99.584,113.752 C109.952,113.752 117.488,105.928 117.488,96.376 L117.488,96.28 C117.488,86.728 110.048,79 99.68,79 C89.312,79 81.776,86.824 81.776,96.376 L81.776,96.472 C81.776,106.024 89.216,113.752 99.584,113.752 L99.584,113.752 Z M99.68,106.936 C93.728,106.936 89.504,102.136 89.504,96.376 L89.504,96.28 C89.504,90.52 93.632,85.816 99.584,85.816 C105.536,85.816 109.76,90.616 109.76,96.376 L109.76,96.472 C109.76,102.232 105.632,106.936 99.68,106.936 L99.68,106.936 Z M124.064,109.816 C124.064,111.832 125.696,113.464 127.712,113.464 C129.728,113.464 131.36,111.832 131.36,109.816 L131.36,91.816 L146.144,111.208 C147.152,112.504 148.208,113.368 149.984,113.368 L150.224,113.368 C152.288,113.368 153.92,111.736 153.92,109.672 L153.92,82.936 C153.92,80.92 152.288,79.288 150.272,79.288 C148.256,79.288 146.624,80.92 146.624,82.936 L146.624,100.264 L132.368,81.544 C131.36,80.248 130.304,79.384 128.528,79.384 L127.76,79.384 C125.696,79.384 124.064,81.016 124.064,83.08 L124.064,109.816 Z M70.016,161.656 C77.264,161.656 82.352,157.912 82.352,151.24 L82.352,151.144 C82.352,145.288 78.512,142.84 71.696,141.064 C65.888,139.576 64.448,138.856 64.448,136.648 L64.448,136.552 C64.448,134.92 65.936,133.624 68.768,133.624 C71.072,133.624 73.376,134.44 75.824,135.88 C76.4,136.216 76.976,136.408 77.696,136.408 C79.616,136.408 81.152,134.92 81.152,133 C81.152,131.56 80.336,130.552 79.52,130.072 C76.496,128.152 72.944,127.096 68.864,127.096 C62,127.096 57.104,131.128 57.104,137.224 L57.104,137.32 C57.104,143.992 61.472,145.864 68.24,147.592 C73.856,149.032 75.008,149.992 75.008,151.864 L75.008,151.96 C75.008,153.928 73.184,155.128 70.16,155.128 C66.896,155.128 64.112,153.976 61.568,152.104 C61.088,151.768 60.416,151.432 59.456,151.432 C57.536,151.432 56,152.92 56,154.84 C56,155.992 56.576,157.048 57.392,157.624 C61.136,160.312 65.6,161.656 70.016,161.656 L70.016,161.656 Z M86.24,158.008 C86.24,159.928 87.728,161.464 89.648,161.464 C91.184,161.464 92.432,160.6 93.056,159.16 L95.408,153.64 L110.192,153.64 L112.448,158.92 C113.12,160.456 114.272,161.464 116,161.464 C117.968,161.464 119.504,159.88 119.504,157.912 C119.504,157.432 119.36,156.952 119.12,156.424 L107.408,129.976 C106.592,128.152 105.152,127.048 103.136,127.048 L102.704,127.048 C100.688,127.048 99.2,128.152 98.384,129.976 L86.672,156.424 C86.432,156.952 86.24,157.48 86.24,158.008 L86.24,158.008 Z M98.144,147.112 L102.8,136.024 L107.456,147.112 L98.144,147.112 Z M125.312,157.48 C125.312,159.544 126.944,161.176 129.008,161.176 L146.384,161.176 C148.256,161.176 149.744,159.688 149.744,157.816 C149.744,155.944 148.256,154.456 146.384,154.456 L132.704,154.456 L132.704,130.984 C132.704,128.92 131.072,127.288 129.008,127.288 C126.944,127.288 125.312,128.92 125.312,130.984 L125.312,157.48 Z M158.72,161.176 L177.584,161.176 C179.408,161.176 180.896,159.736 180.896,157.912 C180.896,156.088 179.408,154.6 177.584,154.6 L162.368,154.6 L162.368,147.544 L175.184,147.544 C177.008,147.544 178.496,146.104 178.496,144.28 C178.496,142.456 177.008,140.968 175.184,140.968 L162.368,140.968 L162.368,134.152 L177.344,134.152 C179.168,134.152 180.656,132.712 180.656,130.888 C180.656,129.064 179.168,127.576 177.344,127.576 L158.72,127.576 C156.656,127.576 155.024,129.208 155.024,131.272 L155.024,157.48 C155.024,159.544 156.656,161.176 158.72,161.176 L158.72,161.176 Z" id="ON" fill="#FFFFFF"></path>
                    </g>
                </g>
            </g>
        </g>
    </g>
</svg>