<?xml version="1.0" encoding="UTF-8" standalone="no"?>
<svg width="240px" height="248px" viewBox="0 0 240 248" version="1.1" xmlns="http://www.w3.org/2000/svg" xmlns:xlink="http://www.w3.org/1999/xlink">
    <!-- Generator: Sketch 3.6 (26304) - http://www.bohemiancoding.com/sketch -->
    <title>1459699828_Ecommerce_Icons_Rose_Color-33</title>
    <desc>Created with Sketch.</desc>
    <defs></defs>
    <g id="Page-1" stroke="none" stroke-width="1" fill="none" fill-rule="evenodd">
        <g id="1459699828_Ecommerce_Icons_Rose_Color-33">
            <g id="_x33_4">
                <path d="M203.597999,207.471089 C207.299999,193.552089 214.614999,183.257089 226.489999,175.138089 C240.673999,165.440089 242.778999,159.511089 236.478999,143.548089 C231.012999,129.697089 230.996999,116.819089 235.733999,102.893089 C240.838999,87.8850885 238.884999,81.6990885 225.870999,73.0470885 C212.882999,64.4120885 204.889999,53.0900885 200.170999,38.4340885 C195.105999,22.7040885 190.980999,19.6870885 174.809999,20.1660885 C159.369999,20.6230885 146.072999,16.7420885 133.638999,7.32408854 C120.386999,-2.71391146 115.133999,-2.37091146 101.417999,7.96608854 C90.068999,16.5180885 78.129999,20.6980885 63.660999,19.7990885 C47.104999,18.7710885 41.399999,23.0250885 36.858999,39.3780885 C33.009999,53.2400885 25.600999,63.4680885 13.777999,71.5790885 C-1.16100105,81.8260885 -2.92700105,87.0000885 3.59099895,104.134089 C8.72899895,117.639089 8.62499895,130.178089 3.91299895,143.684089 C-1.57600105,159.416089 0.29599895,165.493089 13.863999,174.518089 C26.853999,183.159089 35.180999,194.277089 39.312999,209.223089 C40.805999,214.625089 44.380999,219.451089 47.198999,224.915089 C53.185999,225.982089 58.544999,228.059089 63.707999,227.649089 C80.528999,226.316089 94.979999,230.918089 107.861999,241.791089 C117.734999,250.124089 128.085999,248.739089 137.501999,240.821089 C149.021999,231.134089 161.639999,226.630089 177.028999,227.434089 C193.717999,228.308089 199.229999,223.897089 203.597999,207.471089 L203.597999,207.471089 Z" id="Shape" fill="#FFFFFF"></path>
                <path d="M63.8784283,120.788443 C71.5724101,120.788443 76.9734834,116.814068 76.9734834,109.731528 L76.9734834,109.629621 C76.9734834,103.413292 72.8972016,100.814662 65.6618016,98.9293818 C59.4964255,97.3498227 57.9678198,96.5855198 57.9678198,94.2416578 L57.9678198,94.1397508 C57.9678198,92.4073311 59.547379,91.031586 62.5536368,91.031586 C64.9994058,91.031586 67.4451748,91.8977959 70.0438044,93.4264015 C70.6552467,93.7830762 71.266689,93.9868902 72.0309918,93.9868902 C74.0691326,93.9868902 75.6996453,92.4073311 75.6996453,90.3691902 C75.6996453,88.8405846 74.8334355,87.7705606 73.9672256,87.2610254 C70.7571537,85.2228845 66.9865931,84.101907 62.6555438,84.101907 C55.3691902,84.101907 50.171931,88.3820029 50.171931,94.8531001 L50.171931,94.9550072 C50.171931,102.037547 54.8087015,104.024734 61.993148,105.859061 C67.95471,107.387666 69.1775946,108.406737 69.1775946,110.393924 L69.1775946,110.495831 C69.1775946,112.584926 67.2413607,113.858764 64.0312889,113.858764 C60.5664494,113.858764 57.6111452,112.635879 54.9106085,110.648692 C54.4010733,110.292017 53.687724,109.935343 52.6686536,109.935343 C50.6305127,109.935343 49,111.514902 49,113.553043 C49,114.775927 49.6114423,115.896905 50.4776521,116.508347 C54.4520268,119.361744 59.1907043,120.788443 63.8784283,120.788443 L63.8784283,120.788443 Z M101.125453,120.89035 C112.131413,120.89035 120.131116,112.584926 120.131116,102.445175 L120.131116,102.343268 C120.131116,92.203517 112.23332,84 101.22736,84 C90.221399,84 82.2216961,92.305424 82.2216961,102.445175 L82.2216961,102.547082 C82.2216961,112.686833 90.119492,120.89035 101.125453,120.89035 L101.125453,120.89035 Z M101.22736,113.65495 C94.909123,113.65495 90.4252131,108.559597 90.4252131,102.445175 L90.4252131,102.343268 C90.4252131,96.2288452 94.8072159,91.2354001 101.125453,91.2354001 C107.443689,91.2354001 111.927599,96.3307522 111.927599,102.445175 L111.927599,102.547082 C111.927599,108.661504 107.545596,113.65495 101.22736,113.65495 L101.22736,113.65495 Z M127.111749,116.355486 C127.111749,118.546488 128.844168,120.278907 131.03517,120.278907 L149.480345,120.278907 C151.467532,120.278907 153.047091,118.699348 153.047091,116.712161 C153.047091,114.724974 151.467532,113.145414 149.480345,113.145414 L134.958591,113.145414 L134.958591,88.2291423 C134.958591,86.0381409 133.226171,84.3057211 131.03517,84.3057211 C128.844168,84.3057211 127.111749,86.0381409 127.111749,88.2291423 L127.111749,116.355486 Z M158.651979,116.355486 C158.651979,118.546488 160.384398,120.278907 162.5754,120.278907 L172.56229,120.278907 C183.772065,120.278907 191.517,112.483019 191.517,102.445175 L191.517,102.343268 C191.517,92.305424 183.772065,84.6114423 172.56229,84.6114423 L162.5754,84.6114423 C160.384398,84.6114423 158.651979,86.343862 158.651979,88.5348634 L158.651979,116.355486 Z M166.498821,113.196368 L166.498821,91.6939818 L172.56229,91.6939818 C178.982434,91.6939818 183.313483,96.1269381 183.313483,102.445175 L183.313483,102.547082 C183.313483,108.865319 178.982434,113.196368 172.56229,113.196368 L166.498821,113.196368 Z M84.7438954,171.843871 C95.7498561,171.843871 103.749559,163.538447 103.749559,153.398696 L103.749559,153.296789 C103.749559,143.157039 95.8517631,134.953522 84.8458025,134.953522 C73.8398418,134.953522 65.8401389,143.258946 65.8401389,153.398696 L65.8401389,153.500604 C65.8401389,163.640354 73.7379348,171.843871 84.7438954,171.843871 L84.7438954,171.843871 Z M84.8458025,164.608471 C78.5275658,164.608471 74.0436559,159.513119 74.0436559,153.398696 L74.0436559,153.296789 C74.0436559,147.182367 78.4256587,142.188922 84.7438954,142.188922 C91.0621321,142.188922 95.546042,147.284274 95.546042,153.398696 L95.546042,153.500604 C95.546042,159.615026 91.1640391,164.608471 84.8458025,164.608471 L84.8458025,164.608471 Z M125.60862,171.792918 C135.187882,171.792918 141.251351,166.493752 141.251351,155.691605 L141.251351,139.182664 C141.251351,136.991662 139.518931,135.259243 137.32793,135.259243 C135.136928,135.259243 133.404509,136.991662 133.404509,139.182664 L133.404509,155.997326 C133.404509,161.653167 130.500158,164.557518 125.710527,164.557518 C120.920896,164.557518 118.016545,161.55126 118.016545,155.742558 L118.016545,139.182664 C118.016545,136.991662 116.284125,135.259243 114.093124,135.259243 C111.902122,135.259243 110.169703,136.991662 110.169703,139.182664 L110.169703,155.946373 C110.169703,166.442798 116.029358,171.792918 125.60862,171.792918 L125.60862,171.792918 Z M157.556478,167.614729 C157.556478,169.80573 159.288898,171.53815 161.479899,171.53815 C163.6709,171.53815 165.40332,169.80573 165.40332,167.614729 L165.40332,142.800364 L172.944441,142.800364 C174.931629,142.800364 176.562141,141.169851 176.562141,139.182664 C176.562141,137.195477 174.931629,135.564964 172.944441,135.564964 L150.015357,135.564964 C148.028169,135.564964 146.397657,137.195477 146.397657,139.182664 C146.397657,141.169851 148.028169,142.800364 150.015357,142.800364 L157.556478,142.800364 L157.556478,167.614729 Z" id="SOLD" fill="#1A3057"></path>
            </g>
        </g>
    </g>
</svg>